{
	"asset":{
		"generator":"Khronos glTF Blender I/O v4.0.44",
		"version":"2.0"
	},
	"scene":0,
	"scenes":[
		{
			"name":"Scene",
			"nodes":[
				0
			]
		}
	],
	"nodes":[
		{
			"mesh":0,
			"name":"Plane"
		}
	],
	"materials":[
		{
			"doubleSided":true,
			"name":"Stikls",
			"pbrMetallicRoughness":{
				"baseColorFactor":[
					0.6493205428123474,
					0.6493205428123474,
					0.6493205428123474,
					1
				],
				"metallicFactor":0,
				"roughnessFactor":0.5
			}
		},
		{
			"doubleSided":true,
			"name":"CarMetal",
			"pbrMetallicRoughness":{
				"baseColorTexture":{
					"index":0
				},
				"metallicFactor":0.5090909004211426,
				"roughnessFactor":0.5
			}
		},
		{
			"doubleSided":true,
			"name":"Pipes",
			"pbrMetallicRoughness":{
				"baseColorTexture":{
					"index":1
				},
				"metallicFactor":0.5871559381484985,
				"roughnessFactor":0.5
			}
		},
		{
			"doubleSided":true,
			"name":"The rest",
			"pbrMetallicRoughness":{
				"baseColorFactor":[
					0.13160264492034912,
					0.13160264492034912,
					0.13160264492034912,
					1
				],
				"roughnessFactor":0.5
			}
		},
		{
			"doubleSided":true,
			"name":"Tires",
			"pbrMetallicRoughness":{
				"baseColorFactor":[
					0.19567205011844635,
					0.19567205011844635,
					0.19567205011844635,
					1
				],
				"metallicFactor":0.8073394298553467,
				"roughnessFactor":0.5
			}
		},
		{
			"doubleSided":true,
			"name":"Material.001",
			"pbrMetallicRoughness":{
				"baseColorFactor":[
					0,
					0,
					0,
					1
				],
				"roughnessFactor":0.5
			}
		},
		{
			"doubleSided":true,
			"name":"Rubber",
			"pbrMetallicRoughness":{
				"baseColorFactor":[
					0.017445893958210945,
					0.017445893958210945,
					0.017445893958210945,
					1
				],
				"metallicFactor":0,
				"roughnessFactor":0.5733944773674011
			}
		},
		{
			"doubleSided":true,
			"name":"LightsRed",
			"pbrMetallicRoughness":{
				"baseColorFactor":[
					0.800000011920929,
					0.800000011920929,
					0.800000011920929,
					1
				],
				"metallicFactor":0,
				"roughnessFactor":0.5
			}
		},
		{
			"doubleSided":true,
			"name":"shit1",
			"pbrMetallicRoughness":{
				"baseColorTexture":{
					"index":2
				},
				"metallicFactor":0,
				"roughnessFactor":0.5
			}
		}
	],
	"meshes":[
		{
			"name":"Plane",
			"primitives":[
				{
					"attributes":{
						"POSITION":0,
						"NORMAL":1,
						"TEXCOORD_0":2
					},
					"indices":3,
					"material":0
				},
				{
					"attributes":{
						"POSITION":4,
						"NORMAL":5,
						"TEXCOORD_0":6
					},
					"indices":7,
					"material":1
				},
				{
					"attributes":{
						"POSITION":8,
						"NORMAL":9,
						"TEXCOORD_0":10
					},
					"indices":11,
					"material":2
				},
				{
					"attributes":{
						"POSITION":12,
						"NORMAL":13,
						"TEXCOORD_0":14
					},
					"indices":15,
					"material":3
				},
				{
					"attributes":{
						"POSITION":16,
						"NORMAL":17,
						"TEXCOORD_0":18
					},
					"indices":19,
					"material":4
				},
				{
					"attributes":{
						"POSITION":20,
						"NORMAL":21,
						"TEXCOORD_0":22
					},
					"indices":23,
					"material":5
				},
				{
					"attributes":{
						"POSITION":24,
						"NORMAL":25,
						"TEXCOORD_0":26
					},
					"indices":27,
					"material":6
				},
				{
					"attributes":{
						"POSITION":28,
						"NORMAL":29,
						"TEXCOORD_0":30
					},
					"indices":31,
					"material":7
				},
				{
					"attributes":{
						"POSITION":32,
						"NORMAL":33,
						"TEXCOORD_0":34
					},
					"indices":35,
					"material":8
				}
			]
		}
	],
	"textures":[
		{
			"sampler":0,
			"source":0
		},
		{
			"sampler":0,
			"source":0
		},
		{
			"sampler":0,
			"source":1
		}
	],
	"images":[
		{
			"mimeType":"image/jpeg",
			"name":"rusa1",
			"uri":"rusa1.jpg"
		},
		{
			"mimeType":"image/jpeg",
			"name":"shit1",
			"uri":"shit1.jpg"
		}
	],
	"accessors":[
		{
			"bufferView":0,
			"componentType":5126,
			"count":85,
			"max":[
				4.508255481719971,
				0.8710774183273315,
				1.6794742345809937
			],
			"min":[
				-0.6837984323501587,
				-0.8374871611595154,
				-1.6794742345809937
			],
			"type":"VEC3"
		},
		{
			"bufferView":1,
			"componentType":5126,
			"count":85,
			"type":"VEC3"
		},
		{
			"bufferView":2,
			"componentType":5126,
			"count":85,
			"type":"VEC2"
		},
		{
			"bufferView":3,
			"componentType":5123,
			"count":228,
			"type":"SCALAR"
		},
		{
			"bufferView":4,
			"componentType":5126,
			"count":1943,
			"max":[
				9.397029876708984,
				1.0027120113372803,
				1.7888827323913574
			],
			"min":[
				-1.0709683895111084,
				-1.6655465364456177,
				-1.7888827323913574
			],
			"type":"VEC3"
		},
		{
			"bufferView":5,
			"componentType":5126,
			"count":1943,
			"type":"VEC3"
		},
		{
			"bufferView":6,
			"componentType":5126,
			"count":1943,
			"type":"VEC2"
		},
		{
			"bufferView":7,
			"componentType":5123,
			"count":6354,
			"type":"SCALAR"
		},
		{
			"bufferView":8,
			"componentType":5126,
			"count":1179,
			"max":[
				-0.6594743728637695,
				-0.33939096331596375,
				1.2326245307922363
			],
			"min":[
				-0.9042438268661499,
				-0.8191969990730286,
				-1.2434062957763672
			],
			"type":"VEC3"
		},
		{
			"bufferView":9,
			"componentType":5126,
			"count":1179,
			"type":"VEC3"
		},
		{
			"bufferView":10,
			"componentType":5126,
			"count":1179,
			"type":"VEC2"
		},
		{
			"bufferView":11,
			"componentType":5123,
			"count":4032,
			"type":"SCALAR"
		},
		{
			"bufferView":12,
			"componentType":5126,
			"count":614,
			"max":[
				8.656107902526855,
				-1.1861803531646729,
				1.537115454673767
			],
			"min":[
				0.03740091621875763,
				-1.7239617109298706,
				-1.2918933629989624
			],
			"type":"VEC3"
		},
		{
			"bufferView":13,
			"componentType":5126,
			"count":614,
			"type":"VEC3"
		},
		{
			"bufferView":14,
			"componentType":5126,
			"count":614,
			"type":"VEC2"
		},
		{
			"bufferView":15,
			"componentType":5123,
			"count":2088,
			"type":"SCALAR"
		},
		{
			"bufferView":16,
			"componentType":5126,
			"count":5060,
			"max":[
				7.719479560852051,
				-0.7756065726280212,
				1.7348438501358032
			],
			"min":[
				-0.44878268241882324,
				-2.1279494762420654,
				-1.7348440885543823
			],
			"type":"VEC3"
		},
		{
			"bufferView":17,
			"componentType":5126,
			"count":5060,
			"type":"VEC3"
		},
		{
			"bufferView":18,
			"componentType":5126,
			"count":5060,
			"type":"VEC2"
		},
		{
			"bufferView":19,
			"componentType":5123,
			"count":14592,
			"type":"SCALAR"
		},
		{
			"bufferView":20,
			"componentType":5126,
			"count":284,
			"max":[
				7.270897388458252,
				-1.2241885662078857,
				1.6903998851776123
			],
			"min":[
				-0.0652332752943039,
				-1.6793674230575562,
				-1.6904000043869019
			],
			"type":"VEC3"
		},
		{
			"bufferView":21,
			"componentType":5126,
			"count":284,
			"type":"VEC3"
		},
		{
			"bufferView":22,
			"componentType":5126,
			"count":284,
			"type":"VEC2"
		},
		{
			"bufferView":23,
			"componentType":5123,
			"count":744,
			"type":"SCALAR"
		},
		{
			"bufferView":24,
			"componentType":5126,
			"count":528,
			"max":[
				0.8385275602340698,
				-0.7756065726280212,
				1.7348436117172241
			],
			"min":[
				-0.5138153433799744,
				-2.1279494762420654,
				-1.734843373298645
			],
			"type":"VEC3"
		},
		{
			"bufferView":25,
			"componentType":5126,
			"count":528,
			"type":"VEC3"
		},
		{
			"bufferView":26,
			"componentType":5126,
			"count":528,
			"type":"VEC2"
		},
		{
			"bufferView":27,
			"componentType":5123,
			"count":1920,
			"type":"SCALAR"
		},
		{
			"bufferView":28,
			"componentType":5126,
			"count":188,
			"max":[
				8.867937088012695,
				-0.3540797829627991,
				1.7572764158248901
			],
			"min":[
				8.627760887145996,
				-0.880204975605011,
				-1.7572764158248901
			],
			"type":"VEC3"
		},
		{
			"bufferView":29,
			"componentType":5126,
			"count":188,
			"type":"VEC3"
		},
		{
			"bufferView":30,
			"componentType":5126,
			"count":188,
			"type":"VEC2"
		},
		{
			"bufferView":31,
			"componentType":5123,
			"count":456,
			"type":"SCALAR"
		},
		{
			"bufferView":32,
			"componentType":5126,
			"count":1210,
			"max":[
				8.74656867980957,
				0.6040096282958984,
				1.3455890417099
			],
			"min":[
				4.902334213256836,
				-1.4047822952270508,
				-1.3940593004226685
			],
			"type":"VEC3"
		},
		{
			"bufferView":33,
			"componentType":5126,
			"count":1210,
			"type":"VEC3"
		},
		{
			"bufferView":34,
			"componentType":5126,
			"count":1210,
			"type":"VEC2"
		},
		{
			"bufferView":35,
			"componentType":5123,
			"count":5760,
			"type":"SCALAR"
		}
	],
	"bufferViews":[
		{
			"buffer":0,
			"byteLength":1020,
			"byteOffset":0,
			"target":34962
		},
		{
			"buffer":0,
			"byteLength":1020,
			"byteOffset":1020,
			"target":34962
		},
		{
			"buffer":0,
			"byteLength":680,
			"byteOffset":2040,
			"target":34962
		},
		{
			"buffer":0,
			"byteLength":456,
			"byteOffset":2720,
			"target":34963
		},
		{
			"buffer":0,
			"byteLength":23316,
			"byteOffset":3176,
			"target":34962
		},
		{
			"buffer":0,
			"byteLength":23316,
			"byteOffset":26492,
			"target":34962
		},
		{
			"buffer":0,
			"byteLength":15544,
			"byteOffset":49808,
			"target":34962
		},
		{
			"buffer":0,
			"byteLength":12708,
			"byteOffset":65352,
			"target":34963
		},
		{
			"buffer":0,
			"byteLength":14148,
			"byteOffset":78060,
			"target":34962
		},
		{
			"buffer":0,
			"byteLength":14148,
			"byteOffset":92208,
			"target":34962
		},
		{
			"buffer":0,
			"byteLength":9432,
			"byteOffset":106356,
			"target":34962
		},
		{
			"buffer":0,
			"byteLength":8064,
			"byteOffset":115788,
			"target":34963
		},
		{
			"buffer":0,
			"byteLength":7368,
			"byteOffset":123852,
			"target":34962
		},
		{
			"buffer":0,
			"byteLength":7368,
			"byteOffset":131220,
			"target":34962
		},
		{
			"buffer":0,
			"byteLength":4912,
			"byteOffset":138588,
			"target":34962
		},
		{
			"buffer":0,
			"byteLength":4176,
			"byteOffset":143500,
			"target":34963
		},
		{
			"buffer":0,
			"byteLength":60720,
			"byteOffset":147676,
			"target":34962
		},
		{
			"buffer":0,
			"byteLength":60720,
			"byteOffset":208396,
			"target":34962
		},
		{
			"buffer":0,
			"byteLength":40480,
			"byteOffset":269116,
			"target":34962
		},
		{
			"buffer":0,
			"byteLength":29184,
			"byteOffset":309596,
			"target":34963
		},
		{
			"buffer":0,
			"byteLength":3408,
			"byteOffset":338780,
			"target":34962
		},
		{
			"buffer":0,
			"byteLength":3408,
			"byteOffset":342188,
			"target":34962
		},
		{
			"buffer":0,
			"byteLength":2272,
			"byteOffset":345596,
			"target":34962
		},
		{
			"buffer":0,
			"byteLength":1488,
			"byteOffset":347868,
			"target":34963
		},
		{
			"buffer":0,
			"byteLength":6336,
			"byteOffset":349356,
			"target":34962
		},
		{
			"buffer":0,
			"byteLength":6336,
			"byteOffset":355692,
			"target":34962
		},
		{
			"buffer":0,
			"byteLength":4224,
			"byteOffset":362028,
			"target":34962
		},
		{
			"buffer":0,
			"byteLength":3840,
			"byteOffset":366252,
			"target":34963
		},
		{
			"buffer":0,
			"byteLength":2256,
			"byteOffset":370092,
			"target":34962
		},
		{
			"buffer":0,
			"byteLength":2256,
			"byteOffset":372348,
			"target":34962
		},
		{
			"buffer":0,
			"byteLength":1504,
			"byteOffset":374604,
			"target":34962
		},
		{
			"buffer":0,
			"byteLength":912,
			"byteOffset":376108,
			"target":34963
		},
		{
			"buffer":0,
			"byteLength":14520,
			"byteOffset":377020,
			"target":34962
		},
		{
			"buffer":0,
			"byteLength":14520,
			"byteOffset":391540,
			"target":34962
		},
		{
			"buffer":0,
			"byteLength":9680,
			"byteOffset":406060,
			"target":34962
		},
		{
			"buffer":0,
			"byteLength":11520,
			"byteOffset":415740,
			"target":34963
		}
	],
	"samplers":[
		{
			"magFilter":9729,
			"minFilter":9987
		}
	],
	"buffers":[
		{
			"byteLength":427260,
			"uri":"ShittuCar.bin"
		}
	]
}
