{
	"asset":{
		"generator":"Khronos glTF Blender I/O v4.0.44",
		"version":"2.0"
	},
	"scene":0,
	"scenes":[
		{
			"name":"Scene",
			"nodes":[
				0
			]
		}
	],
	"nodes":[
		{
			"mesh":0,
			"name":"ThePileOFSHIt",
			"rotation":[
				0,
				0.7071068286895752,
				0,
				0.7071068286895752
			],
			"scale":[
				1,
				0.7396272420883179,
				1
			],
			"translation":[
				-12.889737129211426,
				2.253798484802246,
				3.4893171787261963
			]
		}
	],
	"animations":[
		{
			"channels":[
				{
					"sampler":0,
					"target":{
						"node":0,
						"path":"translation"
					}
				},
				{
					"sampler":1,
					"target":{
						"node":0,
						"path":"rotation"
					}
				},
				{
					"sampler":2,
					"target":{
						"node":0,
						"path":"scale"
					}
				}
			],
			"name":"AnimationForPile",
			"samplers":[
				{
					"input":8,
					"interpolation":"STEP",
					"output":9
				},
				{
					"input":8,
					"interpolation":"STEP",
					"output":10
				},
				{
					"input":8,
					"interpolation":"STEP",
					"output":11
				}
			]
		}
	],
	"materials":[
		{
			"doubleSided":true,
			"name":"shit1",
			"pbrMetallicRoughness":{
				"baseColorTexture":{
					"index":0
				},
				"metallicFactor":0,
				"roughnessFactor":0.5
			}
		}
	],
	"meshes":[
		{
			"extras":{
				"targetNames":[
					"Key 1",
					"Key 2"
				]
			},
			"name":"Plane.002",
			"primitives":[
				{
					"attributes":{
						"POSITION":0,
						"NORMAL":1,
						"TEXCOORD_0":2
					},
					"indices":3,
					"material":0,
					"targets":[
						{
							"POSITION":4,
							"NORMAL":5
						},
						{
							"POSITION":6,
							"NORMAL":7
						}
					]
				}
			],
			"weights":[
				0,
				0
			]
		}
	],
	"textures":[
		{
			"sampler":0,
			"source":0
		}
	],
	"images":[
		{
			"mimeType":"image/jpeg",
			"name":"shit1.jpg",
			"uri":"../../../../../../Desktop/textures/shit1.jpg"
		}
	],
	"accessors":[
		{
			"bufferView":0,
			"componentType":5126,
			"count":1295,
			"max":[
				8.74656867980957,
				0.6040096282958984,
				1.3455890417099
			],
			"min":[
				4.902334213256836,
				-1.4047822952270508,
				-1.3940593004226685
			],
			"type":"VEC3"
		},
		{
			"bufferView":1,
			"componentType":5126,
			"count":1295,
			"type":"VEC3"
		},
		{
			"bufferView":2,
			"componentType":5126,
			"count":1295,
			"type":"VEC2"
		},
		{
			"bufferView":3,
			"componentType":5123,
			"count":5760,
			"type":"SCALAR"
		},
		{
			"bufferView":4,
			"componentType":5126,
			"count":1295,
			"max":[
				0.8831043243408203,
				0.42675793170928955,
				0.581491231918335
			],
			"min":[
				-0.7169370651245117,
				-0.4093383550643921,
				-0.5588010549545288
			],
			"type":"VEC3"
		},
		{
			"bufferView":5,
			"componentType":5126,
			"count":1295,
			"type":"VEC3"
		},
		{
			"bufferView":6,
			"componentType":5126,
			"count":1295,
			"max":[
				0,
				1.312135100364685,
				5.960464477539063e-08
			],
			"min":[
				0,
				-0.2238445281982422,
				-5.960464477539063e-08
			],
			"type":"VEC3"
		},
		{
			"bufferView":7,
			"componentType":5126,
			"count":1295,
			"type":"VEC3"
		},
		{
			"bufferView":8,
			"componentType":5126,
			"count":2,
			"max":[
				5.125
			],
			"min":[
				0.041666666666666664
			],
			"type":"SCALAR"
		},
		{
			"bufferView":9,
			"componentType":5126,
			"count":2,
			"type":"VEC3"
		},
		{
			"bufferView":10,
			"componentType":5126,
			"count":2,
			"type":"VEC4"
		},
		{
			"bufferView":11,
			"componentType":5126,
			"count":2,
			"type":"VEC3"
		}
	],
	"bufferViews":[
		{
			"buffer":0,
			"byteLength":15540,
			"byteOffset":0,
			"target":34962
		},
		{
			"buffer":0,
			"byteLength":15540,
			"byteOffset":15540,
			"target":34962
		},
		{
			"buffer":0,
			"byteLength":10360,
			"byteOffset":31080,
			"target":34962
		},
		{
			"buffer":0,
			"byteLength":11520,
			"byteOffset":41440,
			"target":34963
		},
		{
			"buffer":0,
			"byteLength":15540,
			"byteOffset":52960,
			"target":34962
		},
		{
			"buffer":0,
			"byteLength":15540,
			"byteOffset":68500,
			"target":34962
		},
		{
			"buffer":0,
			"byteLength":15540,
			"byteOffset":84040,
			"target":34962
		},
		{
			"buffer":0,
			"byteLength":15540,
			"byteOffset":99580,
			"target":34962
		},
		{
			"buffer":0,
			"byteLength":8,
			"byteOffset":115120
		},
		{
			"buffer":0,
			"byteLength":24,
			"byteOffset":115128
		},
		{
			"buffer":0,
			"byteLength":32,
			"byteOffset":115152
		},
		{
			"buffer":0,
			"byteLength":24,
			"byteOffset":115184
		}
	],
	"samplers":[
		{
			"magFilter":9729,
			"minFilter":9987
		}
	],
	"buffers":[
		{
			"byteLength":115208,
			"uri":"DeleteLater.bin"
		}
	]
}
